<?xml version="1.0" encoding="UTF-8" standalone="no"?>
<!DOCTYPE svg PUBLIC "-//W3C//DTD SVG 1.1//EN"
 "http://www.w3.org/Graphics/SVG/1.1/DTD/svg11.dtd">
<!-- Generated by graphviz version 2.40.1 (20161225.0304)
 -->
<!-- Title: g Pages: 1 -->
<svg width="421pt" height="369pt"
 viewBox="0.00 0.00 420.62 369.20" xmlns="http://www.w3.org/2000/svg" xmlns:xlink="http://www.w3.org/1999/xlink">
<g id="graph0" class="graph" transform="scale(1 1) rotate(0) translate(4 365.2)">
<title>g</title>
<polygon fill="#ffffff" stroke="transparent" points="-4,4 -4,-365.2 416.618,-365.2 416.618,4 -4,4"/>
<!-- T1 -->
<g id="node1" class="node">
<title>T1</title>
<polygon fill="none" stroke="#0058ad" points="235.7999,-331.7 235.7999,-360.7 373.9017,-360.7 373.9017,-331.7 235.7999,-331.7"/>
<text text-anchor="middle" x="273.1467" y="-342" font-family="Times,serif" font-size="14.00" fill="#0058ad">[:r x [1 2]]</text>
<polyline fill="none" stroke="#0058ad" points="310.4935,-331.7 310.4935,-360.7 "/>
<text text-anchor="middle" x="342.1976" y="-342" font-family="Times,serif" font-size="14.00" fill="#0058ad">[:r z [1]]</text>
</g>
<!-- T3 -->
<g id="node2" class="node">
<title>T3</title>
<polygon fill="none" stroke="#0058ad" points="52.4794,-248.9 52.4794,-277.9 281.2222,-277.9 281.2222,-248.9 52.4794,-248.9"/>
<text text-anchor="middle" x="97.7999" y="-259.2" font-family="Times,serif" font-size="14.00" fill="#0058ad">[:append x 1]</text>
<polyline fill="none" stroke="#0058ad" points="143.1204,-248.9 143.1204,-277.9 "/>
<text text-anchor="middle" x="175.2172" y="-259.2" font-family="Times,serif" font-size="14.00" fill="#0058ad">[:r y [1]]</text>
<polyline fill="none" stroke="#0058ad" points="207.314,-248.9 207.314,-277.9 "/>
<text text-anchor="middle" x="244.2681" y="-259.2" font-family="Times,serif" font-size="14.00" fill="#0058ad">[:r z [1 2]]</text>
</g>
<!-- T1&#45;&gt;T3 -->
<g id="edge2" class="edge">
<title>T1&#45;&gt;T3</title>
<path fill="none" stroke="#0050c0" d="M280.4968,-331.5876C258.1687,-318.1907 224.9099,-298.2354 200.1338,-283.3698"/>
<polygon fill="#0050c0" stroke="#0050c0" points="201.8012,-280.2886 191.4255,-278.1448 198.1997,-286.291 201.8012,-280.2886"/>
<text text-anchor="middle" x="271.7842" y="-300.6" font-family="Times,serif" font-size="14.00" fill="#0050c0">realtime</text>
</g>
<!-- T7 -->
<g id="node4" class="node">
<title>T7</title>
<polygon fill="none" stroke="#0058ad" points="160.6025,-83.3 160.6025,-112.3 341.0991,-112.3 341.0991,-83.3 160.6025,-83.3"/>
<text text-anchor="middle" x="205.5303" y="-93.6" font-family="Times,serif" font-size="14.00" fill="#0058ad">[:append z 2]</text>
<polyline fill="none" stroke="#0058ad" points="250.4581,-83.3 250.4581,-112.3 "/>
<text text-anchor="middle" x="295.7786" y="-93.6" font-family="Times,serif" font-size="14.00" fill="#0058ad">[:append y 1]</text>
</g>
<!-- T1&#45;&gt;T7 -->
<g id="edge1" class="edge">
<title>T1:f1&#45;&gt;T7:f0</title>
<path fill="none" stroke="#5b00c0" d="M341.8508,-331.2C341.8508,-258.7157 304.6657,-131.5935 303.8508,-130.8 275.0974,-102.8025 217.9732,-147.1374 207.5151,-122.7358"/>
<polygon fill="#5b00c0" stroke="#5b00c0" points="210.9549,-122.0843 205.8508,-112.8 204.051,-123.2408 210.9549,-122.0843"/>
<text text-anchor="middle" x="335.2344" y="-217.8" font-family="Times,serif" font-size="14.00" fill="#5b00c0">rw</text>
</g>
<!-- T5 -->
<g id="node3" class="node">
<title>T5</title>
<polygon fill="none" stroke="#0058ad" points="160.923,-166.1 160.923,-195.1 250.7786,-195.1 250.7786,-166.1 160.923,-166.1"/>
<text text-anchor="middle" x="205.8508" y="-176.4" font-family="Times,serif" font-size="14.00" fill="#0058ad">[:append z 1]</text>
</g>
<!-- T3&#45;&gt;T5 -->
<g id="edge3" class="edge">
<title>T3&#45;&gt;T5</title>
<path fill="none" stroke="#0050c0" d="M173.8232,-248.597C179.5909,-236.3517 187.8944,-218.7227 194.6013,-204.4834"/>
<polygon fill="#0050c0" stroke="#0050c0" points="197.8439,-205.8129 198.9387,-195.2748 191.5112,-202.8301 197.8439,-205.8129"/>
<text text-anchor="middle" x="212.7842" y="-217.8" font-family="Times,serif" font-size="14.00" fill="#0050c0">realtime</text>
</g>
<!-- T9 -->
<g id="node5" class="node">
<title>T9</title>
<polygon fill="none" stroke="#0058ad" points="116.5962,-.5 116.5962,-29.5 269.1054,-29.5 269.1054,-.5 116.5962,-.5"/>
<text text-anchor="middle" x="147.5303" y="-10.8" font-family="Times,serif" font-size="14.00" fill="#0058ad">[:r z nil]</text>
<polyline fill="none" stroke="#0058ad" points="178.4644,-.5 178.4644,-29.5 "/>
<text text-anchor="middle" x="223.7849" y="-10.8" font-family="Times,serif" font-size="14.00" fill="#0058ad">[:append x 2]</text>
</g>
<!-- T3&#45;&gt;T9 -->
<g id="edge4" class="edge">
<title>T3:f0&#45;&gt;T9:f1</title>
<path fill="none" stroke="#c02700" d="M97.8508,-248.4C97.8508,-170.9858 106.4536,-145.5061 151.8508,-82.8 161.5771,-69.3652 205.3552,-55.3604 219.4581,-39.5365"/>
<polygon fill="#c02700" stroke="#c02700" points="222.846,-40.5471 223.8508,-30 216.4881,-37.6185 222.846,-40.5471"/>
<text text-anchor="middle" x="130.9574" y="-135" font-family="Times,serif" font-size="14.00" fill="#c02700">ww</text>
</g>
<!-- T5&#45;&gt;T1 -->
<g id="edge6" class="edge">
<title>T5:f0&#45;&gt;T1:f1</title>
<path fill="none" stroke="#c000a5" d="M227.8891,-195.2901C245.8938,-207.9792 271.3074,-227.5218 289.8508,-248.4 290.2119,-248.8065 323.3397,-301.2221 336.5247,-322.439"/>
<polygon fill="#c000a5" stroke="#c000a5" points="333.6653,-324.4732 341.8508,-331.2 339.6468,-320.8369 333.6653,-324.4732"/>
<text text-anchor="middle" x="315.2344" y="-259.2" font-family="Times,serif" font-size="14.00" fill="#c000a5">wr</text>
</g>
<!-- T5&#45;&gt;T7 -->
<g id="edge5" class="edge">
<title>T5:f0&#45;&gt;T7:f0</title>
<path fill="none" stroke="#c02700" d="M205.8508,-166.0517C205.8508,-154.7894 205.8508,-138.5269 205.8508,-122.9102"/>
<polygon fill="#c02700" stroke="#c02700" points="209.3509,-122.8 205.8508,-112.8 202.3509,-122.8 209.3509,-122.8"/>
<text text-anchor="middle" x="215.9574" y="-135" font-family="Times,serif" font-size="14.00" fill="#c02700">ww</text>
</g>
<!-- T7&#45;&gt;T3 -->
<g id="edge7" class="edge">
<title>T7:f1&#45;&gt;T3:f1</title>
<path fill="none" stroke="#c000a5" d="M295.8508,-112.8C295.8508,-130.0135 262.0118,-213.2126 239.8508,-230.4 219.6798,-246.044 186.7272,-226.3597 177.3889,-238.6821"/>
<polygon fill="#c000a5" stroke="#c000a5" points="173.9914,-237.8401 174.8508,-248.4 180.7642,-239.609 173.9914,-237.8401"/>
<text text-anchor="middle" x="286.2344" y="-176.4" font-family="Times,serif" font-size="14.00" fill="#c000a5">wr</text>
</g>
<!-- T7&#45;&gt;T9 -->
<g id="edge8" class="edge">
<title>T7&#45;&gt;T9</title>
<path fill="none" stroke="#0050c0" d="M240.4816,-82.997C231.7389,-70.5162 219.0788,-52.4427 209.008,-38.0658"/>
<polygon fill="#0050c0" stroke="#0050c0" points="211.7342,-35.8572 203.1303,-29.6748 206.0009,-39.8734 211.7342,-35.8572"/>
<text text-anchor="middle" x="250.7842" y="-52.2" font-family="Times,serif" font-size="14.00" fill="#0050c0">realtime</text>
</g>
<!-- T9&#45;&gt;T1 -->
<g id="edge10" class="edge">
<title>T9:f1&#45;&gt;T1:f0</title>
<path fill="none" stroke="#c000a5" d="M268.8508,-15C336.9783,-15 397.8508,-29.6725 397.8508,-97.8 397.8508,-222 397.8508,-222 397.8508,-222 397.8508,-273.0965 369.5489,-283.6684 327.8508,-313.2 310.6329,-325.3941 284.6529,-312.3872 275.8723,-321.5167"/>
<polygon fill="#c000a5" stroke="#c000a5" points="272.4884,-320.6114 272.8508,-331.2 279.1707,-322.6965 272.4884,-320.6114"/>
<text text-anchor="middle" x="405.2344" y="-176.4" font-family="Times,serif" font-size="14.00" fill="#c000a5">wr</text>
</g>
<!-- T9&#45;&gt;T5 -->
<g id="edge9" class="edge">
<title>T9:f0&#45;&gt;T5:f0</title>
<path fill="none" stroke="#5b00c0" d="M116.8508,-15C-122.6003,-15 74.9433,-97.1146 110.8508,-147.6 111.0403,-147.8665 131.8829,-155.1193 153.9949,-162.7571"/>
<polygon fill="#5b00c0" stroke="#5b00c0" points="152.898,-166.0811 163.4927,-166.0348 155.1816,-159.464 152.898,-166.0811"/>
<text text-anchor="middle" x="80.2344" y="-93.6" font-family="Times,serif" font-size="14.00" fill="#5b00c0">rw</text>
</g>
</g>
</svg>
