<?xml version="1.0" encoding="UTF-8" standalone="no"?>
<!DOCTYPE svg PUBLIC "-//W3C//DTD SVG 1.1//EN"
 "http://www.w3.org/Graphics/SVG/1.1/DTD/svg11.dtd">
<!-- Generated by graphviz version 2.40.1 (20161225.0304)
 -->
<!-- Title: g Pages: 1 -->
<svg width="405pt" height="369pt"
 viewBox="0.00 0.00 405.31 369.20" xmlns="http://www.w3.org/2000/svg" xmlns:xlink="http://www.w3.org/1999/xlink">
<g id="graph0" class="graph" transform="scale(1 1) rotate(0) translate(4 365.2)">
<title>g</title>
<polygon fill="#ffffff" stroke="transparent" points="-4,4 -4,-365.2 401.3055,-365.2 401.3055,4 -4,4"/>
<!-- T1 -->
<g id="node1" class="node">
<title>T1</title>
<polygon fill="none" stroke="#0058ad" points="259.2037,-331.7 259.2037,-360.7 397.3055,-360.7 397.3055,-331.7 259.2037,-331.7"/>
<text text-anchor="middle" x="296.5505" y="-342" font-family="Times,serif" font-size="14.00" fill="#0058ad">[:r x [1 2]]</text>
<polyline fill="none" stroke="#0058ad" points="333.8973,-331.7 333.8973,-360.7 "/>
<text text-anchor="middle" x="365.6014" y="-342" font-family="Times,serif" font-size="14.00" fill="#0058ad">[:r z [1]]</text>
</g>
<!-- T3 -->
<g id="node2" class="node">
<title>T3</title>
<polygon fill="none" stroke="#0058ad" points="95.8832,-248.9 95.8832,-277.9 324.626,-277.9 324.626,-248.9 95.8832,-248.9"/>
<text text-anchor="middle" x="141.2037" y="-259.2" font-family="Times,serif" font-size="14.00" fill="#0058ad">[:append x 1]</text>
<polyline fill="none" stroke="#0058ad" points="186.5242,-248.9 186.5242,-277.9 "/>
<text text-anchor="middle" x="218.621" y="-259.2" font-family="Times,serif" font-size="14.00" fill="#0058ad">[:r y [1]]</text>
<polyline fill="none" stroke="#0058ad" points="250.7178,-248.9 250.7178,-277.9 "/>
<text text-anchor="middle" x="287.6719" y="-259.2" font-family="Times,serif" font-size="14.00" fill="#0058ad">[:r z [1 2]]</text>
</g>
<!-- T1&#45;&gt;T3 -->
<g id="edge2" class="edge">
<title>T1&#45;&gt;T3</title>
<path fill="none" stroke="#0050c0" d="M307.4302,-331.5876C288.5892,-318.367 260.6461,-298.7594 239.5539,-283.9592"/>
<polygon fill="#0050c0" stroke="#0050c0" points="241.4639,-281.0238 231.2677,-278.1448 237.4432,-286.7538 241.4639,-281.0238"/>
<text text-anchor="middle" x="302.188" y="-300.6" font-family="Times,serif" font-size="14.00" fill="#0050c0">realtime</text>
</g>
<!-- T7 -->
<g id="node4" class="node">
<title>T7</title>
<polygon fill="none" stroke="#0058ad" points="148.0063,-83.3 148.0063,-112.3 328.5029,-112.3 328.5029,-83.3 148.0063,-83.3"/>
<text text-anchor="middle" x="192.9341" y="-93.6" font-family="Times,serif" font-size="14.00" fill="#0058ad">[:append z 2]</text>
<polyline fill="none" stroke="#0058ad" points="237.8619,-83.3 237.8619,-112.3 "/>
<text text-anchor="middle" x="283.1824" y="-93.6" font-family="Times,serif" font-size="14.00" fill="#0058ad">[:append y 1]</text>
</g>
<!-- T1&#45;&gt;T7 -->
<g id="edge1" class="edge">
<title>T1:f1&#45;&gt;T7:f0</title>
<path fill="none" stroke="#5b00c0" d="M365.2546,-331.2C365.2546,-291.7473 355.4077,-281.0458 333.2546,-248.4 313.8645,-219.8258 300.6699,-220.0204 276.2546,-195.6 248.5037,-167.8432 245.1348,-157.3798 216.2546,-130.8 210.2852,-125.306 202.7931,-124.7188 198.0136,-121.8819"/>
<polygon fill="#5b00c0" stroke="#5b00c0" points="200.9963,-120.0331 193.2546,-112.8 194.7959,-123.2821 200.9963,-120.0331"/>
<text text-anchor="middle" x="324.6382" y="-217.8" font-family="Times,serif" font-size="14.00" fill="#5b00c0">rw</text>
</g>
<!-- T5 -->
<g id="node3" class="node">
<title>T5</title>
<polygon fill="none" stroke="#0058ad" points="144.3268,-166.1 144.3268,-195.1 234.1824,-195.1 234.1824,-166.1 144.3268,-166.1"/>
<text text-anchor="middle" x="189.2546" y="-176.4" font-family="Times,serif" font-size="14.00" fill="#0058ad">[:append z 1]</text>
</g>
<!-- T3&#45;&gt;T5 -->
<g id="edge4" class="edge">
<title>T3&#45;&gt;T5</title>
<path fill="none" stroke="#0050c0" d="M206.5002,-248.597C203.4542,-236.5872 199.0949,-219.3988 195.5213,-205.3086"/>
<polygon fill="#0050c0" stroke="#0050c0" points="198.8275,-204.1075 192.9765,-195.2748 192.0424,-205.8284 198.8275,-204.1075"/>
<text text-anchor="middle" x="224.188" y="-217.8" font-family="Times,serif" font-size="14.00" fill="#0050c0">realtime</text>
</g>
<!-- T9 -->
<g id="node5" class="node">
<title>T9</title>
<polygon fill="none" stroke="#0058ad" points="0,-.5 0,-29.5 152.5092,-29.5 152.5092,-.5 0,-.5"/>
<text text-anchor="middle" x="30.9341" y="-10.8" font-family="Times,serif" font-size="14.00" fill="#0058ad">[:r z nil]</text>
<polyline fill="none" stroke="#0058ad" points="61.8682,-.5 61.8682,-29.5 "/>
<text text-anchor="middle" x="107.1887" y="-10.8" font-family="Times,serif" font-size="14.00" fill="#0058ad">[:append x 2]</text>
</g>
<!-- T3&#45;&gt;T9 -->
<g id="edge3" class="edge">
<title>T3:f0&#45;&gt;T9:f1</title>
<path fill="none" stroke="#c02700" d="M141.2546,-248.4C141.2546,-202.3519 111.3718,-93.8609 107.6364,-40.0075"/>
<polygon fill="#c02700" stroke="#c02700" points="111.1334,-39.8592 107.2546,-30 104.1385,-40.1262 111.1334,-39.8592"/>
<text text-anchor="middle" x="136.3612" y="-135" font-family="Times,serif" font-size="14.00" fill="#c02700">ww</text>
</g>
<!-- T5&#45;&gt;T1 -->
<g id="edge6" class="edge">
<title>T5:f0&#45;&gt;T1:f0</title>
<path fill="none" stroke="#c000a5" d="M146.377,-195.189C103.5309,-212.1863 47.3705,-242.5614 72.4874,-278.4 96.096,-312.0864 199.4969,-341.8529 249.2273,-345.7651"/>
<polygon fill="#c000a5" stroke="#c000a5" points="249.1123,-349.2633 259.2546,-346.2 249.4157,-342.2699 249.1123,-349.2633"/>
<text text-anchor="middle" x="80.6382" y="-259.2" font-family="Times,serif" font-size="14.00" fill="#c000a5">wr</text>
</g>
<!-- T5&#45;&gt;T7 -->
<g id="edge5" class="edge">
<title>T5:f0&#45;&gt;T7:f0</title>
<path fill="none" stroke="#c02700" d="M190.6088,-166.0663C191.5607,-154.8125 192.7313,-138.5562 193.1212,-122.9238"/>
<polygon fill="#c02700" stroke="#c02700" points="196.6225,-122.8453 193.2546,-112.8 189.6231,-122.753 196.6225,-122.8453"/>
<text text-anchor="middle" x="202.3612" y="-135" font-family="Times,serif" font-size="14.00" fill="#c02700">ww</text>
</g>
<!-- T7&#45;&gt;T3 -->
<g id="edge7" class="edge">
<title>T7:f1&#45;&gt;T3:f1</title>
<path fill="none" stroke="#c000a5" d="M283.2546,-112.8C283.2546,-166.9671 284.8306,-187.8944 251.2546,-230.4 243.9732,-239.6179 230.6166,-236.5126 223.3278,-239.6638"/>
<polygon fill="#c000a5" stroke="#c000a5" points="220.2498,-237.9947 218.2546,-248.4 226.3031,-241.51 220.2498,-237.9947"/>
<text text-anchor="middle" x="288.6382" y="-176.4" font-family="Times,serif" font-size="14.00" fill="#c000a5">wr</text>
</g>
<!-- T7&#45;&gt;T9 -->
<g id="edge8" class="edge">
<title>T7&#45;&gt;T9</title>
<path fill="none" stroke="#0050c0" d="M209.6652,-83.1876C183.027,-69.5726 143.1359,-49.1838 113.913,-34.2476"/>
<polygon fill="#0050c0" stroke="#0050c0" points="115.3275,-31.04 104.8302,-29.6053 112.1417,-37.273 115.3275,-31.04"/>
<text text-anchor="middle" x="195.188" y="-52.2" font-family="Times,serif" font-size="14.00" fill="#0050c0">realtime</text>
</g>
<!-- T9&#45;&gt;T1 -->
<g id="edge10" class="edge">
<title>T9:f1&#45;&gt;T1:f0</title>
<path fill="none" stroke="#c000a5" d="M152.2546,-15C196.0396,-15 312.1804,-46.9056 337.2546,-82.8 387.0488,-154.0818 373.7602,-201.4593 333.2546,-278.4 327.2077,-289.8861 318.0545,-286.0243 310.2546,-296.4 302.5848,-306.6026 298.4528,-311.8092 296.9373,-321.1713"/>
<polygon fill="#c000a5" stroke="#c000a5" points="293.4419,-320.9853 296.2546,-331.2 300.4258,-321.4608 293.4419,-320.9853"/>
<text text-anchor="middle" x="376.6382" y="-176.4" font-family="Times,serif" font-size="14.00" fill="#c000a5">wr</text>
</g>
<!-- T9&#45;&gt;T5 -->
<g id="edge9" class="edge">
<title>T9:f0&#45;&gt;T5:f0</title>
<path fill="none" stroke="#5b00c0" d="M31.2546,-30C31.2546,-89.2942 49.1592,-109.1005 94.2546,-147.6 94.748,-148.0212 115.2776,-155.1703 137.1246,-162.7066"/>
<polygon fill="#5b00c0" stroke="#5b00c0" points="136.2546,-166.1088 146.8494,-166.0573 138.5349,-159.4906 136.2546,-166.1088"/>
<text text-anchor="middle" x="64.6382" y="-93.6" font-family="Times,serif" font-size="14.00" fill="#5b00c0">rw</text>
</g>
</g>
</svg>
